# xmcd
#
# Track frame offsets:
#	150
#	18207
#	36922
#	58600
#	85028
#	100437
#	124340
#	142135
#	161855
#	176807
#	194170
#	211628
#	227899
#
# Disc length: 3250 seconds
#
# Revision: 0
# Processed by: cddbd v1.5.2PL0 Copyright (c) Steve Scherf et al.
# Submitted via: EasyCDDAExtractor 2010.4.0.0
#
DISCID=be0cb00d
DTITLE=唐彪 - 唐彪-知音-影视金曲专辑
DYEAR=1900
DGENRE=
TTITLE0=知音
TTITLE1=秋蝉 
TTITLE2=妈妈留给我一首歌
TTITLE3=船歌
TTITLE4=驼铃
TTITLE5=可爱的一朵玫瑰花
TTITLE6=绒花
TTITLE7=雁南飞
TTITLE8=映山红
TTITLE9=怀念战友
TTITLE10=心中的玫瑰
TTITLE11=送别
TTITLE12=乡恋
EXTD=
EXTT0=
EXTT1=
EXTT2=
EXTT3=
EXTT4=
EXTT5=
EXTT6=
EXTT7=
EXTT8=
EXTT9=
EXTT10=
EXTT11=
EXTT12=
PLAYORDER=
